<?xml version="1.0" encoding="iso-8859-1"?>
<!-- Generator: Adobe Illustrator 19.0.0, SVG Export Plug-In . SVG Version: 6.00 Build 0)  -->
<svg version="1.1" id="Capa_1" xmlns="http://www.w3.org/2000/svg" xmlns:xlink="http://www.w3.org/1999/xlink" x="0px" y="0px"
	 viewBox="0 0 512.002 512.002" style="enable-background:new 0 0 512.002 512.002;" xml:space="preserve">
<path style="fill:#716499;" d="M413.881,316.14c-5.898,20.654-15.307,39.357-27.387,55.641c-4.606,6.211-9.604,12.069-14.951,17.553
	c-43.01,44.146-108.285,63.869-171.701,45.761c-74.003-21.131-122.943-87.331-125.541-160.284
	c-0.634-17.706,1.459-35.797,6.587-53.754c1.188-4.162,2.526-8.257,3.992-12.256c5.38-14.68,12.585-28.227,21.29-40.469
	c12.81-18.044,28.86-33.266,47.059-45.043c17.406-11.27,36.772-19.4,57.182-23.871c27.086-5.95,55.994-5.461,84.516,2.683
	c90.518,25.847,143.528,119.112,120.126,209.728C414.676,313.27,414.293,314.697,413.881,316.14z"/>
<path style="fill:#503D7F;" d="M371.543,389.333c-43.01,44.146-108.285,63.869-171.701,45.761
	C125.839,413.963,76.899,347.763,74.301,274.81c-0.634-17.706,1.459-35.797,6.587-53.754c1.188-4.162,2.526-8.257,3.992-12.256
	c5.38-14.68,12.585-28.227,21.29-40.469c12.81-18.044,28.86-33.266,47.059-45.043c17.406-11.27,36.772-19.4,57.182-23.871
	c-16.288,19.043-28.429,41.551-35.518,66.378c-12.963,45.44-7.467,93.197,15.488,134.501c22.947,41.29,60.602,71.175,106.039,84.149
	C321.245,391.535,346.77,393.11,371.543,389.333z"/>
<path id="SVGCleanerId_0" style="fill:#FEC007;" d="M486.13,439.847l4.247,8.605c1.097,2.223,3.218,3.764,5.671,4.12l9.497,1.38
	c6.178,0.898,8.645,8.49,4.174,12.847l-6.872,6.698c-1.775,1.73-2.585,4.223-2.166,6.667l1.622,9.458
	c1.055,6.153-5.403,10.845-10.928,7.94l-8.494-4.466c-2.194-1.154-4.816-1.154-7.01,0l-8.494,4.466
	c-5.526,2.905-11.984-1.787-10.928-7.94l1.622-9.458c0.419-2.443-0.391-4.936-2.166-6.667l-6.872-6.698
	c-4.47-4.358-2.004-11.95,4.174-12.847l9.497-1.38c2.453-0.356,4.574-1.897,5.671-4.12l4.247-8.605
	C475.384,434.248,483.367,434.248,486.13,439.847z"/>
<g>
	<path id="SVGCleanerId_0_1_" style="fill:#FEC007;" d="M486.13,439.847l4.247,8.605c1.097,2.223,3.218,3.764,5.671,4.12l9.497,1.38
		c6.178,0.898,8.645,8.49,4.174,12.847l-6.872,6.698c-1.775,1.73-2.585,4.223-2.166,6.667l1.622,9.458
		c1.055,6.153-5.403,10.845-10.928,7.94l-8.494-4.466c-2.194-1.154-4.816-1.154-7.01,0l-8.494,4.466
		c-5.526,2.905-11.984-1.787-10.928-7.94l1.622-9.458c0.419-2.443-0.391-4.936-2.166-6.667l-6.872-6.698
		c-4.47-4.358-2.004-11.95,4.174-12.847l9.497-1.38c2.453-0.356,4.574-1.897,5.671-4.12l4.247-8.605
		C475.384,434.248,483.367,434.248,486.13,439.847z"/>
</g>
<path id="SVGCleanerId_1" style="fill:#FEC007;" d="M278.869,215.079l1.721,9.441c0.445,2.439,2.061,4.503,4.322,5.519l8.753,3.934
	c5.694,2.559,5.981,10.537,0.486,13.5l-8.447,4.554c-2.182,1.176-3.645,3.351-3.913,5.816l-1.037,9.54
	c-0.675,6.206-8.173,8.945-12.689,4.634l-6.942-6.626c-1.793-1.712-4.314-2.431-6.74-1.925l-9.394,1.962
	c-6.111,1.276-11.033-5.009-8.328-10.636l4.157-8.649c1.074-2.234,0.979-4.854-0.252-7.005l-4.769-8.328
	c-3.102-5.417,1.354-12.04,7.541-11.207l9.511,1.281c2.457,0.331,4.919-0.568,6.584-2.405l6.447-7.109
	C270.073,206.746,277.749,208.938,278.869,215.079z"/>
<g>
	<path id="SVGCleanerId_1_1_" style="fill:#FEC007;" d="M278.869,215.079l1.721,9.441c0.445,2.439,2.061,4.503,4.322,5.519
		l8.753,3.934c5.694,2.559,5.981,10.537,0.486,13.5l-8.447,4.554c-2.182,1.176-3.645,3.351-3.913,5.816l-1.037,9.54
		c-0.675,6.206-8.173,8.945-12.689,4.634l-6.942-6.626c-1.793-1.712-4.314-2.431-6.74-1.925l-9.394,1.962
		c-6.111,1.276-11.033-5.009-8.328-10.636l4.157-8.649c1.074-2.234,0.979-4.854-0.252-7.005l-4.769-8.328
		c-3.102-5.417,1.354-12.04,7.541-11.207l9.511,1.281c2.457,0.331,4.919-0.568,6.584-2.405l6.447-7.109
		C270.073,206.746,277.749,208.938,278.869,215.079z"/>
</g>
<path id="SVGCleanerId_2" style="fill:#FEC007;" d="M39.382,9.421l4.247,8.605c1.097,2.223,3.218,3.764,5.671,4.12l9.497,1.38
	c6.178,0.898,8.645,8.49,4.174,12.847l-6.872,6.698c-1.775,1.73-2.585,4.223-2.166,6.667l1.622,9.458
	c1.055,6.153-5.403,10.845-10.929,7.94l-8.494-4.466c-2.194-1.154-4.816-1.154-7.01,0l-8.494,4.466
	c-5.526,2.905-11.984-1.787-10.929-7.94l1.622-9.458c0.419-2.443-0.391-4.936-2.166-6.667l-6.872-6.698
	c-4.47-4.358-2.004-11.95,4.174-12.847l9.497-1.38c2.453-0.356,4.574-1.897,5.671-4.12l4.247-8.605
	C28.637,3.823,36.62,3.823,39.382,9.421z"/>
<g>
	<path id="SVGCleanerId_2_1_" style="fill:#FEC007;" d="M39.382,9.421l4.247,8.605c1.097,2.223,3.218,3.764,5.671,4.12l9.497,1.38
		c6.178,0.898,8.645,8.49,4.174,12.847l-6.872,6.698c-1.775,1.73-2.585,4.223-2.166,6.667l1.622,9.458
		c1.055,6.153-5.403,10.845-10.929,7.94l-8.494-4.466c-2.194-1.154-4.816-1.154-7.01,0l-8.494,4.466
		c-5.526,2.905-11.984-1.787-10.929-7.94l1.622-9.458c0.419-2.443-0.391-4.936-2.166-6.667l-6.872-6.698
		c-4.47-4.358-2.004-11.95,4.174-12.847l9.497-1.38c2.453-0.356,4.574-1.897,5.671-4.12l4.247-8.605
		C28.637,3.823,36.62,3.823,39.382,9.421z"/>
</g>
<g>
	<path style="fill:#FF9300;" d="M355.84,304.27c-0.703,0-1.417-0.097-2.126-0.299c-4.103-1.172-6.479-5.448-5.308-9.551l0.263-0.92
		c1.172-4.104,5.447-6.48,9.551-5.308c4.103,1.172,6.479,5.448,5.308,9.551l-0.263,0.919
		C362.296,302.057,359.203,304.27,355.84,304.27z"/>
	<path style="fill:#FF9300;" d="M49.632,475.251c-4.267,0-7.726-3.459-7.726-7.726v-0.956c0-4.268,3.459-7.726,7.726-7.726
		s7.726,3.459,7.726,7.726v0.956C57.359,471.792,53.899,475.251,49.632,475.251z"/>
	<path style="fill:#FF9300;" d="M345.184,341.588c-0.703,0-1.417-0.097-2.126-0.299c-4.103-1.172-6.479-5.448-5.308-9.551
		l0.263-0.92c1.171-4.104,5.446-6.479,9.551-5.308c4.103,1.172,6.479,5.448,5.308,9.551l-0.263,0.92
		C351.64,339.375,348.547,341.588,345.184,341.588z"/>
	<path style="fill:#FF9300;" d="M266.315,176.412c-0.703,0-1.418-0.097-2.128-0.3c-4.103-1.173-6.478-5.45-5.305-9.552l0.263-0.919
		c1.173-4.103,5.452-6.48,9.552-5.305c4.103,1.173,6.478,5.45,5.305,9.552l-0.263,0.919
		C272.77,174.201,269.677,176.412,266.315,176.412z"/>
	<path style="fill:#FF9300;" d="M459.37,260.049c-0.703,0-1.417-0.097-2.126-0.299c-4.103-1.172-6.479-5.448-5.308-9.551l0.263-0.92
		c1.172-4.105,5.447-6.482,9.551-5.308c4.103,1.172,6.479,5.448,5.308,9.551l-0.263,0.92
		C465.826,257.837,462.732,260.049,459.37,260.049z"/>
	<path style="fill:#FF9300;" d="M455.716,187.806c-0.703,0-1.417-0.097-2.126-0.299c-4.103-1.172-6.479-5.448-5.308-9.551
		l0.263-0.92c1.172-4.104,5.446-6.478,9.551-5.308c4.103,1.172,6.479,5.448,5.308,9.551l-0.263,0.92
		C462.172,185.594,459.078,187.806,455.716,187.806z"/>
</g>
<path style="fill:#FEC007;" d="M439.31,384.105c0.099-0.055,0.198-0.11,0.297-0.165c7.612-4.247,15.83,4.394,11.171,11.761
	c-20.678,32.7-49.609,60.831-85.802,80.945c-115.209,64.029-260.46,22.669-324.698-92.32
	c-64.067-114.683-24.26-258.543,89.713-323.865c36.963-21.185,77.15-31.402,116.834-31.706c8.731-0.067,11.755,11.465,4.116,15.692
	c-0.102,0.056-0.204,0.113-0.306,0.169c-93.742,52.098-127.49,170.345-75.392,264.086
	C227.341,402.445,345.568,436.204,439.31,384.105z"/>
<path style="fill:#FF9300;" d="M380.334,467.321c-4.962,3.273-10.061,6.375-15.352,9.316
	c-115.368,64.117-260.849,22.577-324.967-92.792C-24.11,268.5,17.438,122.996,132.807,58.878c5.291-2.941,10.617-5.633,16.017-8.119
	C45.331,118.851,10.375,256.302,71.535,366.348C132.677,476.362,267.861,519.256,380.334,467.321z"/>
<g>
	<path style="fill:#503D7F;" d="M134.527,287.823c-4.267,0-7.726-3.459-7.726-7.726v-1.039c0-4.268,3.459-7.726,7.726-7.726
		s7.726,3.459,7.726,7.726v1.039C142.253,284.364,138.794,287.823,134.527,287.823z"/>
	<path style="fill:#503D7F;" d="M45.872,287.823c-4.267,0-7.726-3.459-7.726-7.726v-1.039c0-4.268,3.459-7.726,7.726-7.726
		s7.726,3.459,7.726,7.726v1.039C53.598,284.364,50.139,287.823,45.872,287.823z"/>
	<path style="fill:#503D7F;" d="M89.907,329.445c-21.371,0-35.968-8.616-36.873-9.163c-3.65-2.209-4.818-6.96-2.609-10.611
		c2.204-3.642,6.938-4.813,10.586-2.624c1.171,0.692,26.919,15.48,58.933-0.305c3.828-1.89,8.461-0.315,10.347,3.513
		c1.887,3.827,0.314,8.459-3.513,10.346C113.349,327.223,100.755,329.445,89.907,329.445z"/>
</g>
<g>
</g>
<g>
</g>
<g>
</g>
<g>
</g>
<g>
</g>
<g>
</g>
<g>
</g>
<g>
</g>
<g>
</g>
<g>
</g>
<g>
</g>
<g>
</g>
<g>
</g>
<g>
</g>
<g>
</g>
</svg>
